<svg class="diagram-root" style="background: #f5f6f6" xmlns="http://www.w3.org/2000/svg" xmlns:xlink="http://www.w3.org/1999/xlink"><style>.diagram-root { font-family: "Helvetica Neue", sans-serif; font-size: 12px; } .t { overflow: visible; } .t-bg { y: 40; fill: #fff;   } .th { fill: #005aa0;   } .tht { fill: #fff; font-size: 14px;  } .tf { fill: #323c46; overflow: visible; } .tf.pk { fill: #005aa0; font-weight: bold; } .tf.fk { font-weight: bold; } .ty { fill: #adb1b5; font-weight: normal; text-anchor: end; } .r { fill: transparent; stroke: #c3c3c3; stroke-width: 1; } .l { stroke: 1; } .i { fill: #c2c7ce; stroke: #c2c7ce; } .i.ix { fill: #afb3b6; stroke: #000; } .fa { fill: transparent; overflow: visible; } .fa .bg.hover { fill: #f7f7f7; } .c { cy: 12; r: 4; stroke: #d2d2dc; fill: #d2d2dc; } .hr { fill: transparent; stroke: #323c46; stroke-opacity: 0.035; stroke-width: 13; } .dc { stroke: #fa5a3c; fill: #fa5a3c; } .x { stroke: white; stroke-width: 1; } .hl .th { fill: #1b9bff; } .hl .tht {  } .fhl .bg { fill: #e7f4ff; } .fhls .bg {  } .r.hl { stroke: #1b9bff; } .dim { opacity: 0.25; }</style><g class="drawing-wrapper" transform="translate(256.2788888888881, 320.3066666666656) scale(1,1)"><g class="rs"><path d="M 14.5 -36.650000000000006 m -1, 0 a 1,1 0 1,0 2,0 a 1,1 0 1,0 -2,0 M 14.5 -36.650000000000006 m -0.5, 0 a 0.5,0.5 0 1,0 1,0 a 0.5,0.5 0 1,0 -1,0  M14.5 -36.650000000000006 L14.5 -36.650000000000006 26.5 -36.650000000000006 M 14.5 -30.650000000000006 m -1, 0 a 1,1 0 1,0 2,0 a 1,1 0 1,0 -2,0 M 14.5 -30.650000000000006 m -0.5, 0 a 0.5,0.5 0 1,0 1,0 a 0.5,0.5 0 1,0 -1,0  M14.5 -30.650000000000006 L14.5 -30.650000000000006 21.5 -36.650000000000006 14.5 -42.650000000000006 M 14.5 -42.650000000000006 m -1, 0 a 1,1 0 1,0 2,0 a 1,1 0 1,0 -2,0 M 14.5 -42.650000000000006 m -0.5, 0 a 0.5,0.5 0 1,0 1,0 a 0.5,0.5 0 1,0 -1,0  M26.5 -36.650000000000006 Q 78.28 -36.650000000000006, 130.06 -38.2 T 233.61 -39.75 M 245.61 -39.75 m -1, 0 a 1,1 0 1,0 2,0 a 1,1 0 1,0 -2,0 M 245.61 -39.75 m -0.5, 0 a 0.5,0.5 0 1,0 1,0 a 0.5,0.5 0 1,0 -1,0  M245.61 -39.75 L245.61 -39.75 233.61 -39.75 M239.61 -33.75 L239.61 -33.75 239.61 -45.75" id="h1415990237" class="r"></path><path d="M 14.5 -36.650000000000006 m -1, 0 a 1,1 0 1,0 2,0 a 1,1 0 1,0 -2,0 M 14.5 -36.650000000000006 m -0.5, 0 a 0.5,0.5 0 1,0 1,0 a 0.5,0.5 0 1,0 -1,0  M14.5 -36.650000000000006 L14.5 -36.650000000000006 26.5 -36.650000000000006 M 14.5 -30.650000000000006 m -1, 0 a 1,1 0 1,0 2,0 a 1,1 0 1,0 -2,0 M 14.5 -30.650000000000006 m -0.5, 0 a 0.5,0.5 0 1,0 1,0 a 0.5,0.5 0 1,0 -1,0  M14.5 -30.650000000000006 L14.5 -30.650000000000006 21.5 -36.650000000000006 14.5 -42.650000000000006 M 14.5 -42.650000000000006 m -1, 0 a 1,1 0 1,0 2,0 a 1,1 0 1,0 -2,0 M 14.5 -42.650000000000006 m -0.5, 0 a 0.5,0.5 0 1,0 1,0 a 0.5,0.5 0 1,0 -1,0  M26.5 -36.650000000000006 Q 89.23 -36.650000000000006, 151.96 120.59 T 277.41 277.83000000000004 M 289.41 277.83000000000004 m -1, 0 a 1,1 0 1,0 2,0 a 1,1 0 1,0 -2,0 M 289.41 277.83000000000004 m -0.5, 0 a 0.5,0.5 0 1,0 1,0 a 0.5,0.5 0 1,0 -1,0  M289.41 277.83000000000004 L289.41 277.83000000000004 277.41 277.83000000000004 M283.41 283.83000000000004 L283.41 283.83000000000004 283.41 271.83000000000004" id="h437575849" class="r"></path><path d="M 14.5 -11.650000000000006 m -1, 0 a 1,1 0 1,0 2,0 a 1,1 0 1,0 -2,0 M 14.5 -11.650000000000006 m -0.5, 0 a 0.5,0.5 0 1,0 1,0 a 0.5,0.5 0 1,0 -1,0  M14.5 -11.650000000000006 L14.5 -11.650000000000006 26.5 -11.650000000000006 M 14.5 -5.650000000000006 m -1, 0 a 1,1 0 1,0 2,0 a 1,1 0 1,0 -2,0 M 14.5 -5.650000000000006 m -0.5, 0 a 0.5,0.5 0 1,0 1,0 a 0.5,0.5 0 1,0 -1,0  M14.5 -5.650000000000006 L14.5 -5.650000000000006 21.5 -11.650000000000006 14.5 -17.650000000000006 M 14.5 -17.650000000000006 m -1, 0 a 1,1 0 1,0 2,0 a 1,1 0 1,0 -2,0 M 14.5 -17.650000000000006 m -0.5, 0 a 0.5,0.5 0 1,0 1,0 a 0.5,0.5 0 1,0 -1,0  M26.5 -11.650000000000006 Q 78.28 -11.650000000000006, 130.06 -38.2 T 233.61 -64.75 M 245.61 -64.75 m -1, 0 a 1,1 0 1,0 2,0 a 1,1 0 1,0 -2,0 M 245.61 -64.75 m -0.5, 0 a 0.5,0.5 0 1,0 1,0 a 0.5,0.5 0 1,0 -1,0  M245.61 -64.75 L245.61 -64.75 233.61 -64.75 M239.61 -58.75 L239.61 -58.75 239.61 -70.75" id="h3709677629" class="r"></path><path d="M 14.5 13.349999999999994 m -1, 0 a 1,1 0 1,0 2,0 a 1,1 0 1,0 -2,0 M 14.5 13.349999999999994 m -0.5, 0 a 0.5,0.5 0 1,0 1,0 a 0.5,0.5 0 1,0 -1,0  M14.5 13.349999999999994 L14.5 13.349999999999994 26.5 13.349999999999994 M 14.5 19.349999999999994 m -1, 0 a 1,1 0 1,0 2,0 a 1,1 0 1,0 -2,0 M 14.5 19.349999999999994 m -0.5, 0 a 0.5,0.5 0 1,0 1,0 a 0.5,0.5 0 1,0 -1,0  M14.5 19.349999999999994 L14.5 19.349999999999994 21.5 13.349999999999994 14.5 7.349999999999994 M 14.5 7.349999999999994 m -1, 0 a 1,1 0 1,0 2,0 a 1,1 0 1,0 -2,0 M 14.5 7.349999999999994 m -0.5, 0 a 0.5,0.5 0 1,0 1,0 a 0.5,0.5 0 1,0 -1,0  M26.5 13.349999999999994 Q 78.28 13.349999999999994, 130.06 -0.7 T 233.61 -14.75 M 245.61 -14.75 m -1, 0 a 1,1 0 1,0 2,0 a 1,1 0 1,0 -2,0 M 245.61 -14.75 m -0.5, 0 a 0.5,0.5 0 1,0 1,0 a 0.5,0.5 0 1,0 -1,0  M245.61 -14.75 L245.61 -14.75 233.61 -14.75 M239.61 -8.75 L239.61 -8.75 239.61 -20.75" id="h1150217514" class="r"></path><path d="M -234.28 13.349999999999994 m -1, 0 a 1,1 0 1,0 2,0 a 1,1 0 1,0 -2,0 M -234.28 13.349999999999994 m -0.5, 0 a 0.5,0.5 0 1,0 1,0 a 0.5,0.5 0 1,0 -1,0  M-234.28 13.349999999999994 L-234.28 13.349999999999994 -246.28 13.349999999999994 M -234.28 19.349999999999994 m -1, 0 a 1,1 0 1,0 2,0 a 1,1 0 1,0 -2,0 M -234.28 19.349999999999994 m -0.5, 0 a 0.5,0.5 0 1,0 1,0 a 0.5,0.5 0 1,0 -1,0  M-234.28 19.349999999999994 L-234.28 19.349999999999994 -241.28 13.349999999999994 -234.28 7.349999999999994 M -234.28 7.349999999999994 m -1, 0 a 1,1 0 1,0 2,0 a 1,1 0 1,0 -2,0 M -234.28 7.349999999999994 m -0.5, 0 a 0.5,0.5 0 1,0 1,0 a 0.5,0.5 0 1,0 -1,0  M-246.28 13.349999999999994 C -296.28 13.349999999999994, -310.476 322.43, -222.62 322.43 M -210.62 322.43 m -1, 0 a 1,1 0 1,0 2,0 a 1,1 0 1,0 -2,0 M -210.62 322.43 m -0.5, 0 a 0.5,0.5 0 1,0 1,0 a 0.5,0.5 0 1,0 -1,0  M-210.62 322.43 L-210.62 322.43 -222.62 322.43 M-216.62 328.43 L-216.62 328.43 -216.62 316.43" id="h1114587561" class="r"></path><path d="M -20.18 -233.31 m -1, 0 a 1,1 0 1,0 2,0 a 1,1 0 1,0 -2,0 M -20.18 -233.31 m -0.5, 0 a 0.5,0.5 0 1,0 1,0 a 0.5,0.5 0 1,0 -1,0  M-20.18 -233.31 L-20.18 -233.31 -8.18 -233.31 M -20.18 -227.31 m -1, 0 a 1,1 0 1,0 2,0 a 1,1 0 1,0 -2,0 M -20.18 -227.31 m -0.5, 0 a 0.5,0.5 0 1,0 1,0 a 0.5,0.5 0 1,0 -1,0  M-20.18 -227.31 L-20.18 -227.31 -13.18 -233.31 -20.18 -239.31 M -20.18 -239.31 m -1, 0 a 1,1 0 1,0 2,0 a 1,1 0 1,0 -2,0 M -20.18 -239.31 m -0.5, 0 a 0.5,0.5 0 1,0 1,0 a 0.5,0.5 0 1,0 -1,0  M-8.18 -233.31 Q 52.27 -233.31, 112.72 -149.03 T 233.61 -64.75 M 245.61 -64.75 m -1, 0 a 1,1 0 1,0 2,0 a 1,1 0 1,0 -2,0 M 245.61 -64.75 m -0.5, 0 a 0.5,0.5 0 1,0 1,0 a 0.5,0.5 0 1,0 -1,0  M245.61 -64.75 L245.61 -64.75 233.61 -64.75 M239.61 -58.75 L239.61 -58.75 239.61 -70.75" id="h513203960" class="r"></path><path d="M -231.85 -233.31 m -1, 0 a 1,1 0 1,0 2,0 a 1,1 0 1,0 -2,0 M -231.85 -233.31 m -0.5, 0 a 0.5,0.5 0 1,0 1,0 a 0.5,0.5 0 1,0 -1,0  M-231.85 -233.31 L-231.85 -233.31 -243.85 -233.31 M -231.85 -227.31 m -1, 0 a 1,1 0 1,0 2,0 a 1,1 0 1,0 -2,0 M -231.85 -227.31 m -0.5, 0 a 0.5,0.5 0 1,0 1,0 a 0.5,0.5 0 1,0 -1,0  M-231.85 -227.31 L-231.85 -227.31 -238.85 -233.31 -231.85 -239.31 M -231.85 -239.31 m -1, 0 a 1,1 0 1,0 2,0 a 1,1 0 1,0 -2,0 M -231.85 -239.31 m -0.5, 0 a 0.5,0.5 0 1,0 1,0 a 0.5,0.5 0 1,0 -1,0  M-243.85 -233.31 C -297.73800000000006 -233.31, -296.28 -11.650000000000006, -246.28 -11.650000000000006 M -234.28 -11.650000000000006 m -1, 0 a 1,1 0 1,0 2,0 a 1,1 0 1,0 -2,0 M -234.28 -11.650000000000006 m -0.5, 0 a 0.5,0.5 0 1,0 1,0 a 0.5,0.5 0 1,0 -1,0  M-234.28 -11.650000000000006 L-234.28 -11.650000000000006 -246.28 -11.650000000000006 M-240.28 -5.650000000000006 L-240.28 -5.650000000000006 -240.28 -17.650000000000006" id="h1941521016" class="r"></path><path d="M -20.18 -208.31 m -1, 0 a 1,1 0 1,0 2,0 a 1,1 0 1,0 -2,0 M -20.18 -208.31 m -0.5, 0 a 0.5,0.5 0 1,0 1,0 a 0.5,0.5 0 1,0 -1,0  M-20.18 -208.31 L-20.18 -208.31 -8.18 -208.31 M -20.18 -202.31 m -1, 0 a 1,1 0 1,0 2,0 a 1,1 0 1,0 -2,0 M -20.18 -202.31 m -0.5, 0 a 0.5,0.5 0 1,0 1,0 a 0.5,0.5 0 1,0 -1,0  M-20.18 -202.31 L-20.18 -202.31 -13.18 -208.31 -20.18 -214.31 M -20.18 -214.31 m -1, 0 a 1,1 0 1,0 2,0 a 1,1 0 1,0 -2,0 M -20.18 -214.31 m -0.5, 0 a 0.5,0.5 0 1,0 1,0 a 0.5,0.5 0 1,0 -1,0  M-8.18 -208.31 Q 52.27 -208.31, 112.72 -136.53 T 233.61 -64.75 M 245.61 -64.75 m -1, 0 a 1,1 0 1,0 2,0 a 1,1 0 1,0 -2,0 M 245.61 -64.75 m -0.5, 0 a 0.5,0.5 0 1,0 1,0 a 0.5,0.5 0 1,0 -1,0  M245.61 -64.75 L245.61 -64.75 233.61 -64.75 M239.61 -58.75 L239.61 -58.75 239.61 -70.75" id="h2416335378" class="r"></path><path d="M -231.85 -208.31 m -1, 0 a 1,1 0 1,0 2,0 a 1,1 0 1,0 -2,0 M -231.85 -208.31 m -0.5, 0 a 0.5,0.5 0 1,0 1,0 a 0.5,0.5 0 1,0 -1,0  M-231.85 -208.31 L-231.85 -208.31 -243.85 -208.31 M -231.85 -202.31 m -1, 0 a 1,1 0 1,0 2,0 a 1,1 0 1,0 -2,0 M -231.85 -202.31 m -0.5, 0 a 0.5,0.5 0 1,0 1,0 a 0.5,0.5 0 1,0 -1,0  M-231.85 -202.31 L-231.85 -202.31 -238.85 -208.31 -231.85 -214.31 M -231.85 -214.31 m -1, 0 a 1,1 0 1,0 2,0 a 1,1 0 1,0 -2,0 M -231.85 -214.31 m -0.5, 0 a 0.5,0.5 0 1,0 1,0 a 0.5,0.5 0 1,0 -1,0  M-243.85 -208.31 C -297.73800000000006 -208.31, -296.28 -11.650000000000006, -246.28 -11.650000000000006 M -234.28 -11.650000000000006 m -1, 0 a 1,1 0 1,0 2,0 a 1,1 0 1,0 -2,0 M -234.28 -11.650000000000006 m -0.5, 0 a 0.5,0.5 0 1,0 1,0 a 0.5,0.5 0 1,0 -1,0  M-234.28 -11.650000000000006 L-234.28 -11.650000000000006 -246.28 -11.650000000000006 M-240.28 -5.650000000000006 L-240.28 -5.650000000000006 -240.28 -17.650000000000006" id="h3551267200" class="r"></path><path d="M -27.21 322.43 m -1, 0 a 1,1 0 1,0 2,0 a 1,1 0 1,0 -2,0 M -27.21 322.43 m -0.5, 0 a 0.5,0.5 0 1,0 1,0 a 0.5,0.5 0 1,0 -1,0  M-27.21 322.43 L-27.21 322.43 -15.21 322.43 M -27.21 328.43 m -1, 0 a 1,1 0 1,0 2,0 a 1,1 0 1,0 -2,0 M -27.21 328.43 m -0.5, 0 a 0.5,0.5 0 1,0 1,0 a 0.5,0.5 0 1,0 -1,0  M-27.21 328.43 L-27.21 328.43 -20.21 322.43 -27.21 316.43 M -27.21 316.43 m -1, 0 a 1,1 0 1,0 2,0 a 1,1 0 1,0 -2,0 M -27.21 316.43 m -0.5, 0 a 0.5,0.5 0 1,0 1,0 a 0.5,0.5 0 1,0 -1,0  M-15.21 322.43 Q 47 322.43, 109.2 153.84 T 233.61 -14.75 M 245.61 -14.75 m -1, 0 a 1,1 0 1,0 2,0 a 1,1 0 1,0 -2,0 M 245.61 -14.75 m -0.5, 0 a 0.5,0.5 0 1,0 1,0 a 0.5,0.5 0 1,0 -1,0  M245.61 -14.75 L245.61 -14.75 233.61 -14.75 M239.61 -8.75 L239.61 -8.75 239.61 -20.75" id="h3089285793" class="r"></path><path d="M 457.8 327.83000000000004 m -1, 0 a 1,1 0 1,0 2,0 a 1,1 0 1,0 -2,0 M 457.8 327.83000000000004 m -0.5, 0 a 0.5,0.5 0 1,0 1,0 a 0.5,0.5 0 1,0 -1,0  M457.8 327.83000000000004 L457.8 327.83000000000004 469.8 327.83000000000004 M 457.8 333.83000000000004 m -1, 0 a 1,1 0 1,0 2,0 a 1,1 0 1,0 -2,0 M 457.8 333.83000000000004 m -0.5, 0 a 0.5,0.5 0 1,0 1,0 a 0.5,0.5 0 1,0 -1,0  M457.8 333.83000000000004 L457.8 333.83000000000004 464.8 327.83000000000004 457.8 321.83000000000004 M 457.8 321.83000000000004 m -1, 0 a 1,1 0 1,0 2,0 a 1,1 0 1,0 -2,0 M 457.8 321.83000000000004 m -0.5, 0 a 0.5,0.5 0 1,0 1,0 a 0.5,0.5 0 1,0 -1,0  M469.8 327.83000000000004 C 538.136 327.83000000000004, 531.26 -39.75, 481.26 -39.75 M 469.26 -39.75 m -1, 0 a 1,1 0 1,0 2,0 a 1,1 0 1,0 -2,0 M 469.26 -39.75 m -0.5, 0 a 0.5,0.5 0 1,0 1,0 a 0.5,0.5 0 1,0 -1,0  M469.26 -39.75 L469.26 -39.75 481.26 -39.75 M475.26 -33.75 L475.26 -33.75 475.26 -45.75" id="h4026815966" class="r"></path><path d="M 745.75 -179.43 m -1, 0 a 1,1 0 1,0 2,0 a 1,1 0 1,0 -2,0 M 745.75 -179.43 m -0.5, 0 a 0.5,0.5 0 1,0 1,0 a 0.5,0.5 0 1,0 -1,0  M745.75 -179.43 L745.75 -179.43 733.75 -179.43 M 745.75 -173.43 m -1, 0 a 1,1 0 1,0 2,0 a 1,1 0 1,0 -2,0 M 745.75 -173.43 m -0.5, 0 a 0.5,0.5 0 1,0 1,0 a 0.5,0.5 0 1,0 -1,0  M745.75 -173.43 L745.75 -173.43 738.75 -179.43 745.75 -185.43 M 745.75 -185.43 m -1, 0 a 1,1 0 1,0 2,0 a 1,1 0 1,0 -2,0 M 745.75 -185.43 m -0.5, 0 a 0.5,0.5 0 1,0 1,0 a 0.5,0.5 0 1,0 -1,0  M733.75 -179.43 Q 670.63 -179.43, 607.51 -122.09 T 481.26 -64.75 M 469.26 -64.75 m -1, 0 a 1,1 0 1,0 2,0 a 1,1 0 1,0 -2,0 M 469.26 -64.75 m -0.5, 0 a 0.5,0.5 0 1,0 1,0 a 0.5,0.5 0 1,0 -1,0  M469.26 -64.75 L469.26 -64.75 481.26 -64.75 M475.26 -58.75 L475.26 -58.75 475.26 -70.75" id="h3262472309" class="r"></path><path d="M 745.75 -154.43 m -1, 0 a 1,1 0 1,0 2,0 a 1,1 0 1,0 -2,0 M 745.75 -154.43 m -0.5, 0 a 0.5,0.5 0 1,0 1,0 a 0.5,0.5 0 1,0 -1,0  M745.75 -154.43 L745.75 -154.43 733.75 -154.43 M 745.75 -148.43 m -1, 0 a 1,1 0 1,0 2,0 a 1,1 0 1,0 -2,0 M 745.75 -148.43 m -0.5, 0 a 0.5,0.5 0 1,0 1,0 a 0.5,0.5 0 1,0 -1,0  M745.75 -148.43 L745.75 -148.43 738.75 -154.43 745.75 -160.43 M 745.75 -160.43 m -1, 0 a 1,1 0 1,0 2,0 a 1,1 0 1,0 -2,0 M 745.75 -160.43 m -0.5, 0 a 0.5,0.5 0 1,0 1,0 a 0.5,0.5 0 1,0 -1,0  M733.75 -154.43 Q 670.63 -154.43, 607.51 -97.09 T 481.26 -39.75 M 469.26 -39.75 m -1, 0 a 1,1 0 1,0 2,0 a 1,1 0 1,0 -2,0 M 469.26 -39.75 m -0.5, 0 a 0.5,0.5 0 1,0 1,0 a 0.5,0.5 0 1,0 -1,0  M469.26 -39.75 L469.26 -39.75 481.26 -39.75 M475.26 -33.75 L475.26 -33.75 475.26 -45.75" id="h415674110" class="r"></path><path d="M 745.75 -129.43 m -1, 0 a 1,1 0 1,0 2,0 a 1,1 0 1,0 -2,0 M 745.75 -129.43 m -0.5, 0 a 0.5,0.5 0 1,0 1,0 a 0.5,0.5 0 1,0 -1,0  M745.75 -129.43 L745.75 -129.43 733.75 -129.43 M 745.75 -123.43 m -1, 0 a 1,1 0 1,0 2,0 a 1,1 0 1,0 -2,0 M 745.75 -123.43 m -0.5, 0 a 0.5,0.5 0 1,0 1,0 a 0.5,0.5 0 1,0 -1,0  M745.75 -123.43 L745.75 -123.43 738.75 -129.43 745.75 -135.43 M 745.75 -135.43 m -1, 0 a 1,1 0 1,0 2,0 a 1,1 0 1,0 -2,0 M 745.75 -135.43 m -0.5, 0 a 0.5,0.5 0 1,0 1,0 a 0.5,0.5 0 1,0 -1,0  M733.75 -129.43 Q 670.63 -129.43, 607.51 -72.09 T 481.26 -14.75 M 469.26 -14.75 m -1, 0 a 1,1 0 1,0 2,0 a 1,1 0 1,0 -2,0 M 469.26 -14.75 m -0.5, 0 a 0.5,0.5 0 1,0 1,0 a 0.5,0.5 0 1,0 -1,0  M469.26 -14.75 L469.26 -14.75 481.26 -14.75 M475.26 -8.75 L475.26 -8.75 475.26 -20.75" id="h2642114513" class="r"></path><path d="M 745.75 -79.43 m -1, 0 a 1,1 0 1,0 2,0 a 1,1 0 1,0 -2,0 M 745.75 -79.43 m -0.5, 0 a 0.5,0.5 0 1,0 1,0 a 0.5,0.5 0 1,0 -1,0  M745.75 -79.43 L745.75 -79.43 733.75 -79.43 M 745.75 -73.43 m -1, 0 a 1,1 0 1,0 2,0 a 1,1 0 1,0 -2,0 M 745.75 -73.43 m -0.5, 0 a 0.5,0.5 0 1,0 1,0 a 0.5,0.5 0 1,0 -1,0  M745.75 -73.43 L745.75 -73.43 738.75 -79.43 745.75 -85.43 M 745.75 -85.43 m -1, 0 a 1,1 0 1,0 2,0 a 1,1 0 1,0 -2,0 M 745.75 -85.43 m -0.5, 0 a 0.5,0.5 0 1,0 1,0 a 0.5,0.5 0 1,0 -1,0  M733.75 -79.43 Q 670.63 -79.43, 607.51 -72.09 T 481.26 -64.75 M 469.26 -64.75 m -1, 0 a 1,1 0 1,0 2,0 a 1,1 0 1,0 -2,0 M 469.26 -64.75 m -0.5, 0 a 0.5,0.5 0 1,0 1,0 a 0.5,0.5 0 1,0 -1,0  M469.26 -64.75 L469.26 -64.75 481.26 -64.75 M475.26 -58.75 L475.26 -58.75 475.26 -70.75" id="h2531496998" class="r"></path><path d="M 745.75 -54.43000000000001 m -1, 0 a 1,1 0 1,0 2,0 a 1,1 0 1,0 -2,0 M 745.75 -54.43000000000001 m -0.5, 0 a 0.5,0.5 0 1,0 1,0 a 0.5,0.5 0 1,0 -1,0  M745.75 -54.43000000000001 L745.75 -54.43000000000001 733.75 -54.43000000000001 M 745.75 -48.43000000000001 m -1, 0 a 1,1 0 1,0 2,0 a 1,1 0 1,0 -2,0 M 745.75 -48.43000000000001 m -0.5, 0 a 0.5,0.5 0 1,0 1,0 a 0.5,0.5 0 1,0 -1,0  M745.75 -48.43000000000001 L745.75 -48.43000000000001 738.75 -54.43000000000001 745.75 -60.43000000000001 M 745.75 -60.43000000000001 m -1, 0 a 1,1 0 1,0 2,0 a 1,1 0 1,0 -2,0 M 745.75 -60.43000000000001 m -0.5, 0 a 0.5,0.5 0 1,0 1,0 a 0.5,0.5 0 1,0 -1,0  M733.75 -54.43000000000001 Q 670.63 -54.43000000000001, 607.51 -47.09 T 481.26 -39.75 M 469.26 -39.75 m -1, 0 a 1,1 0 1,0 2,0 a 1,1 0 1,0 -2,0 M 469.26 -39.75 m -0.5, 0 a 0.5,0.5 0 1,0 1,0 a 0.5,0.5 0 1,0 -1,0  M469.26 -39.75 L469.26 -39.75 481.26 -39.75 M475.26 -33.75 L475.26 -33.75 475.26 -45.75" id="h4127236290" class="r"></path><path d="M 745.75 -29.430000000000007 m -1, 0 a 1,1 0 1,0 2,0 a 1,1 0 1,0 -2,0 M 745.75 -29.430000000000007 m -0.5, 0 a 0.5,0.5 0 1,0 1,0 a 0.5,0.5 0 1,0 -1,0  M745.75 -29.430000000000007 L745.75 -29.430000000000007 733.75 -29.430000000000007 M 745.75 -23.430000000000007 m -1, 0 a 1,1 0 1,0 2,0 a 1,1 0 1,0 -2,0 M 745.75 -23.430000000000007 m -0.5, 0 a 0.5,0.5 0 1,0 1,0 a 0.5,0.5 0 1,0 -1,0  M745.75 -23.430000000000007 L745.75 -23.430000000000007 738.75 -29.430000000000007 745.75 -35.43000000000001 M 745.75 -35.43000000000001 m -1, 0 a 1,1 0 1,0 2,0 a 1,1 0 1,0 -2,0 M 745.75 -35.43000000000001 m -0.5, 0 a 0.5,0.5 0 1,0 1,0 a 0.5,0.5 0 1,0 -1,0  M733.75 -29.430000000000007 Q 670.63 -29.430000000000007, 607.51 -22.09 T 481.26 -14.75 M 469.26 -14.75 m -1, 0 a 1,1 0 1,0 2,0 a 1,1 0 1,0 -2,0 M 469.26 -14.75 m -0.5, 0 a 0.5,0.5 0 1,0 1,0 a 0.5,0.5 0 1,0 -1,0  M469.26 -14.75 L469.26 -14.75 481.26 -14.75 M475.26 -8.75 L475.26 -8.75 475.26 -20.75" id="h3238420623" class="r"></path></g><g class="hrs"></g><g class="ts"><svg width="248.78" height="225" x="-234.28" y="-93.65" id="h954634120" class="t"><rect height="40" width="248.78" class="th"></rect><text x="13" y="25" class="tht">World Happines Report</text><rect height="185" width="248.78" class="t-bg"></rect><text x="13" y="61" class="tf fk">GDP per Capita<tspan x="235.78" class="ty">int</tspan></text><text x="13" y="86" class="tf fk">Life Ladder<tspan x="235.78" class="ty">int</tspan></text><text x="13" y="111" class="tf fk">Life Expectancy at Birth<tspan x="235.78" class="ty">int</tspan></text><text x="13" y="136" class="tf">Freedom to Make Life Choices<tspan x="235.78" class="ty">int</tspan></text><text x="13" y="161" class="tf">Generosity<tspan x="235.78" class="ty">int</tspan></text><text x="13" y="186" class="tf">Perceptions of Corruption<tspan x="235.78" class="ty">int</tspan></text><text x="13" y="211" class="tf">Confidence in National Government<tspan x="235.78" class="ty">int</tspan></text></svg><svg width="223.65" height="125" x="245.61" y="-121.75" id="h226089681" class="t"><rect height="40" width="223.65" class="th"></rect><text x="13" y="25" class="tht">Human Development Index HDI</text><rect height="85" width="223.65" class="t-bg"></rect><text x="13" y="61" class="tf fk">Education Index<tspan x="210.65" class="ty">int</tspan></text><text x="13" y="86" class="tf fk">GNI Index<tspan x="210.65" class="ty">int</tspan></text><text x="13" y="111" class="tf fk">Life Expectancy Index<tspan x="210.65" class="ty">int</tspan></text></svg><svg width="211.67" height="100" x="-231.85" y="-290.31" id="h2184709143" class="t"><rect height="40" width="211.67" class="th"></rect><text x="13" y="25" class="tht">Education Index</text><rect height="60" width="211.67" class="t-bg"></rect><text x="13" y="61" class="tf fk">Expected Years of Schooling<tspan x="198.67" class="ty">int</tspan></text><text x="13" y="86" class="tf fk">Mean Years of Schooling<tspan x="198.67" class="ty">int</tspan></text></svg><svg width="183.41" height="75" x="-210.62" y="265.43" id="h750155580" class="t"><rect height="40" width="183.41" class="th"></rect><text x="13" y="25" class="tht">Life Expectancy Index</text><rect height="35" width="183.41" class="t-bg"></rect><text x="13" y="61" class="tf fk">Life expectancy at Birth<tspan x="170.41" class="ty">int</tspan></text></svg><svg width="168.39" height="125" x="289.41" y="220.83" id="h658670535" class="t"><rect height="40" width="168.39" class="th"></rect><text x="13" y="25" class="tht">Gross National Income</text><rect height="85" width="168.39" class="t-bg"></rect><text x="13" y="61" class="tf fk">GDP per Capita<tspan x="155.39" class="ty">int</tspan></text><text x="13" y="86" class="tf">GDP Total<tspan x="155.39" class="ty">int</tspan></text><text x="13" y="111" class="tf fk">GNI per Capita<tspan x="155.39" class="ty">int</tspan></text></svg><svg width="281.48" height="250" x="745.75" y="-261.43" id="h2179033796" class="t"><rect height="40" width="281.48" class="th"></rect><text x="13" y="25" class="tht">Inequality-Adjusted HDI</text><rect height="210" width="281.48" class="t-bg"></rect><text x="13" y="61" class="tf">Overall Loss in HDI Due to Inequality<tspan x="268.48" class="ty">int</tspan></text><text x="13" y="86" class="tf fk">Inequality-Adjusted Education Index<tspan x="268.48" class="ty">int</tspan></text><text x="13" y="111" class="tf fk">Inequality-Adjusted Income Index<tspan x="268.48" class="ty">int</tspan></text><text x="13" y="136" class="tf fk">Inequality-Adjusted Life Expectancy Index<tspan x="268.48" class="ty">int</tspan></text><text x="13" y="161" class="tf">Income Inequality, Gini Coefficient<tspan x="268.48" class="ty">int</tspan></text><text x="13" y="186" class="tf fk">Inequality in Education<tspan x="268.48" class="ty">int</tspan></text><text x="13" y="211" class="tf fk">Inequality in Income<tspan x="268.48" class="ty">int</tspan></text><text x="13" y="236" class="tf fk">Inequality in Life Expectancy<tspan x="268.48" class="ty">int</tspan></text></svg></g></g><text class="qdbd-link" x="10" y="20">www.quickdatabasediagrams.com</text></svg>