<svg class="diagram-root" style="background: #f5f6f6" xmlns="http://www.w3.org/2000/svg" xmlns:xlink="http://www.w3.org/1999/xlink"><style>.diagram-root { font-family: "Helvetica Neue", sans-serif; font-size: 12px; } .t { overflow: visible; } .t-bg { y: 40; fill: #fff;   } .th { fill: #005aa0;   } .tht { fill: #fff; font-size: 14px;  } .tf { fill: #323c46; overflow: visible; } .tf.pk { fill: #005aa0; font-weight: bold; } .tf.fk { font-weight: bold; } .ty { fill: #adb1b5; font-weight: normal; text-anchor: end; } .r { fill: transparent; stroke: #c3c3c3; stroke-width: 1; } .l { stroke: 1; } .i { fill: #c2c7ce; stroke: #c2c7ce; } .i.ix { fill: #afb3b6; stroke: #000; } .fa { fill: transparent; overflow: visible; } .fa .bg.hover { fill: #f7f7f7; } .c { cy: 12; r: 4; stroke: #d2d2dc; fill: #d2d2dc; } .hr { fill: transparent; stroke: #323c46; stroke-opacity: 0.035; stroke-width: 13; } .dc { stroke: #fa5a3c; fill: #fa5a3c; } .x { stroke: white; stroke-width: 1; } .hl .th { fill: #1b9bff; } .hl .tht {  } .fhl .bg { fill: #e7f4ff; } .fhls .bg {  } .r.hl { stroke: #1b9bff; } .dim { opacity: 0.25; }</style><g class="drawing-wrapper" transform="translate(157, 353.75) scale(1,1)"><g class="rs"><path d="M 690.25 62 m -1, 0 a 1,1 0 1,0 2,0 a 1,1 0 1,0 -2,0 M 690.25 62 m -0.5, 0 a 0.5,0.5 0 1,0 1,0 a 0.5,0.5 0 1,0 -1,0  M690.25 62 L690.25 62 678.25 62 M 690.25 68 m -1, 0 a 1,1 0 1,0 2,0 a 1,1 0 1,0 -2,0 M 690.25 68 m -0.5, 0 a 0.5,0.5 0 1,0 1,0 a 0.5,0.5 0 1,0 -1,0  M690.25 68 L690.25 68 683.25 62 690.25 56 M 690.25 56 m -1, 0 a 1,1 0 1,0 2,0 a 1,1 0 1,0 -2,0 M 690.25 56 m -0.5, 0 a 0.5,0.5 0 1,0 1,0 a 0.5,0.5 0 1,0 -1,0  M678.25 62 Q 635.66 62, 593.07 -77.37 T 507.89 -216.75 M 495.89 -216.75 m -1, 0 a 1,1 0 1,0 2,0 a 1,1 0 1,0 -2,0 M 495.89 -216.75 m -0.5, 0 a 0.5,0.5 0 1,0 1,0 a 0.5,0.5 0 1,0 -1,0  M495.89 -216.75 L495.89 -216.75 507.89 -216.75 M501.89 -210.75 L501.89 -210.75 501.89 -222.75" id="h2979022110" class="r"></path><path d="M 939.03 112 m -1, 0 a 1,1 0 1,0 2,0 a 1,1 0 1,0 -2,0 M 939.03 112 m -0.5, 0 a 0.5,0.5 0 1,0 1,0 a 0.5,0.5 0 1,0 -1,0  M939.03 112 L939.03 112 951.03 112 M 939.03 118 m -1, 0 a 1,1 0 1,0 2,0 a 1,1 0 1,0 -2,0 M 939.03 118 m -0.5, 0 a 0.5,0.5 0 1,0 1,0 a 0.5,0.5 0 1,0 -1,0  M939.03 118 L939.03 118 946.03 112 939.03 106 M 939.03 106 m -1, 0 a 1,1 0 1,0 2,0 a 1,1 0 1,0 -2,0 M 939.03 106 m -0.5, 0 a 0.5,0.5 0 1,0 1,0 a 0.5,0.5 0 1,0 -1,0  M951.03 112 C 1001.03 112, 1018.6519999999999 -158, 921.66 -158 M 909.66 -158 m -1, 0 a 1,1 0 1,0 2,0 a 1,1 0 1,0 -2,0 M 909.66 -158 m -0.5, 0 a 0.5,0.5 0 1,0 1,0 a 0.5,0.5 0 1,0 -1,0  M909.66 -158 L909.66 -158 921.66 -158 M915.66 -152 L915.66 -152 915.66 -164" id="h1114587561" class="r"></path><path d="M 690.25 112 m -1, 0 a 1,1 0 1,0 2,0 a 1,1 0 1,0 -2,0 M 690.25 112 m -0.5, 0 a 0.5,0.5 0 1,0 1,0 a 0.5,0.5 0 1,0 -1,0  M690.25 112 L690.25 112 678.25 112 M 690.25 118 m -1, 0 a 1,1 0 1,0 2,0 a 1,1 0 1,0 -2,0 M 690.25 118 m -0.5, 0 a 0.5,0.5 0 1,0 1,0 a 0.5,0.5 0 1,0 -1,0  M690.25 118 L690.25 118 683.25 112 690.25 106 M 690.25 106 m -1, 0 a 1,1 0 1,0 2,0 a 1,1 0 1,0 -2,0 M 690.25 106 m -0.5, 0 a 0.5,0.5 0 1,0 1,0 a 0.5,0.5 0 1,0 -1,0  M678.25 112 Q 643.35 112, 608.45 62.63 T 538.65 13.25 M 526.65 13.25 m -1, 0 a 1,1 0 1,0 2,0 a 1,1 0 1,0 -2,0 M 526.65 13.25 m -0.5, 0 a 0.5,0.5 0 1,0 1,0 a 0.5,0.5 0 1,0 -1,0  M526.65 13.25 L526.65 13.25 538.65 13.25 M532.65 19.25 L532.65 19.25 532.65 7.25" id="h1150217514" class="r"></path><path d="M 303 -36.75 m -1, 0 a 1,1 0 1,0 2,0 a 1,1 0 1,0 -2,0 M 303 -36.75 m -0.5, 0 a 0.5,0.5 0 1,0 1,0 a 0.5,0.5 0 1,0 -1,0  M303 -36.75 L303 -36.75 291 -36.75 M 303 -30.75 m -1, 0 a 1,1 0 1,0 2,0 a 1,1 0 1,0 -2,0 M 303 -30.75 m -0.5, 0 a 0.5,0.5 0 1,0 1,0 a 0.5,0.5 0 1,0 -1,0  M303 -30.75 L303 -30.75 296 -36.75 303 -42.75 M 303 -42.75 m -1, 0 a 1,1 0 1,0 2,0 a 1,1 0 1,0 -2,0 M 303 -42.75 m -0.5, 0 a 0.5,0.5 0 1,0 1,0 a 0.5,0.5 0 1,0 -1,0  M291 -36.75 Q 240.42 -36.75, 189.84 -34.5 T 88.67 -32.25 M 76.67 -32.25 m -1, 0 a 1,1 0 1,0 2,0 a 1,1 0 1,0 -2,0 M 76.67 -32.25 m -0.5, 0 a 0.5,0.5 0 1,0 1,0 a 0.5,0.5 0 1,0 -1,0  M76.67 -32.25 L76.67 -32.25 88.67 -32.25 M82.67 -26.25 L82.67 -26.25 82.67 -38.25" id="h2017359983" class="r"></path><path d="M 303 -36.75 m -1, 0 a 1,1 0 1,0 2,0 a 1,1 0 1,0 -2,0 M 303 -36.75 m -0.5, 0 a 0.5,0.5 0 1,0 1,0 a 0.5,0.5 0 1,0 -1,0  M303 -36.75 L303 -36.75 291 -36.75 M 303 -30.75 m -1, 0 a 1,1 0 1,0 2,0 a 1,1 0 1,0 -2,0 M 303 -30.75 m -0.5, 0 a 0.5,0.5 0 1,0 1,0 a 0.5,0.5 0 1,0 -1,0  M303 -30.75 L303 -30.75 296 -36.75 303 -42.75 M 303 -42.75 m -1, 0 a 1,1 0 1,0 2,0 a 1,1 0 1,0 -2,0 M 303 -42.75 m -0.5, 0 a 0.5,0.5 0 1,0 1,0 a 0.5,0.5 0 1,0 -1,0  M291 -36.75 Q 240.42 -36.75, 189.84 -22 T 88.67 -7.25 M 76.67 -7.25 m -1, 0 a 1,1 0 1,0 2,0 a 1,1 0 1,0 -2,0 M 76.67 -7.25 m -0.5, 0 a 0.5,0.5 0 1,0 1,0 a 0.5,0.5 0 1,0 -1,0  M76.67 -7.25 L76.67 -7.25 88.67 -7.25 M82.67 -1.25 L82.67 -1.25 82.67 -13.25" id="h3161335929" class="r"></path><path d="M 303 -11.75 m -1, 0 a 1,1 0 1,0 2,0 a 1,1 0 1,0 -2,0 M 303 -11.75 m -0.5, 0 a 0.5,0.5 0 1,0 1,0 a 0.5,0.5 0 1,0 -1,0  M303 -11.75 L303 -11.75 291 -11.75 M 303 -5.75 m -1, 0 a 1,1 0 1,0 2,0 a 1,1 0 1,0 -2,0 M 303 -5.75 m -0.5, 0 a 0.5,0.5 0 1,0 1,0 a 0.5,0.5 0 1,0 -1,0  M303 -5.75 L303 -5.75 296 -11.75 303 -17.75 M 303 -17.75 m -1, 0 a 1,1 0 1,0 2,0 a 1,1 0 1,0 -2,0 M 303 -17.75 m -0.5, 0 a 0.5,0.5 0 1,0 1,0 a 0.5,0.5 0 1,0 -1,0  M291 -11.75 C 241 -11.75, 226.3 -216.75, 315.5 -216.75 M 327.5 -216.75 m -1, 0 a 1,1 0 1,0 2,0 a 1,1 0 1,0 -2,0 M 327.5 -216.75 m -0.5, 0 a 0.5,0.5 0 1,0 1,0 a 0.5,0.5 0 1,0 -1,0  M327.5 -216.75 L327.5 -216.75 315.5 -216.75 M321.5 -210.75 L321.5 -210.75 321.5 -222.75" id="h2735100102" class="r"></path><path d="M 526.65 13.25 m -1, 0 a 1,1 0 1,0 2,0 a 1,1 0 1,0 -2,0 M 526.65 13.25 m -0.5, 0 a 0.5,0.5 0 1,0 1,0 a 0.5,0.5 0 1,0 -1,0  M526.65 13.25 L526.65 13.25 538.65 13.25 M 526.65 19.25 m -1, 0 a 1,1 0 1,0 2,0 a 1,1 0 1,0 -2,0 M 526.65 19.25 m -0.5, 0 a 0.5,0.5 0 1,0 1,0 a 0.5,0.5 0 1,0 -1,0  M526.65 19.25 L526.65 19.25 533.65 13.25 526.65 7.25 M 526.65 7.25 m -1, 0 a 1,1 0 1,0 2,0 a 1,1 0 1,0 -2,0 M 526.65 7.25 m -0.5, 0 a 0.5,0.5 0 1,0 1,0 a 0.5,0.5 0 1,0 -1,0  M538.65 13.25 Q 582.55 13.25, 626.45 -72.37 T 714.25 -158 M 726.25 -158 m -1, 0 a 1,1 0 1,0 2,0 a 1,1 0 1,0 -2,0 M 726.25 -158 m -0.5, 0 a 0.5,0.5 0 1,0 1,0 a 0.5,0.5 0 1,0 -1,0  M726.25 -158 L726.25 -158 714.25 -158 M720.25 -152 L720.25 -152 720.25 -164" id="h1138633143" class="r"></path></g><g class="hrs"></g><g class="ts"><svg width="248.78" height="200" x="690.25" y="5" id="h954634120" class="t"><rect height="40" width="248.78" class="th"></rect><text x="13" y="25" class="tht">World Happines Report</text><rect height="160" width="248.78" class="t-bg"></rect><text x="13" y="61" class="tf fk">GDP per Capita<tspan x="235.78" class="ty">int</tspan></text><text x="13" y="86" class="tf">Life Ladder<tspan x="235.78" class="ty">int</tspan></text><text x="13" y="111" class="tf fk">Life Expectancy at Birth<tspan x="235.78" class="ty">int</tspan></text><text x="13" y="136" class="tf">Freedom to Make Life Choices<tspan x="235.78" class="ty">int</tspan></text><text x="13" y="161" class="tf">Perceptions of Corruption<tspan x="235.78" class="ty">int</tspan></text><text x="13" y="186" class="tf">Confidence in National Government<tspan x="235.78" class="ty">int</tspan></text></svg><svg width="223.65" height="125" x="303" y="-93.75" id="h226089681" class="t"><rect height="40" width="223.65" class="th"></rect><text x="13" y="25" class="tht">Human Development Index HDI</text><rect height="85" width="223.65" class="t-bg"></rect><text x="13" y="61" class="tf fk">Education Index<tspan x="210.65" class="ty">int</tspan></text><text x="13" y="86" class="tf fk">GNI Index<tspan x="210.65" class="ty">int</tspan></text><text x="13" y="111" class="tf fk">Life Expectancy Index<tspan x="210.65" class="ty">int</tspan></text></svg><svg width="211.67" height="100" x="-135" y="-89.25" id="h2184709143" class="t"><rect height="40" width="211.67" class="th"></rect><text x="13" y="25" class="tht">Education Index</text><rect height="60" width="211.67" class="t-bg"></rect><text x="13" y="61" class="tf fk">Expected Years of Schooling<tspan x="198.67" class="ty">int</tspan></text><text x="13" y="86" class="tf fk">Mean Years of Schooling<tspan x="198.67" class="ty">int</tspan></text></svg><svg width="183.41" height="75" x="726.25" y="-215" id="h750155580" class="t"><rect height="40" width="183.41" class="th"></rect><text x="13" y="25" class="tht">Life Expectancy Index</text><rect height="35" width="183.41" class="t-bg"></rect><text x="13" y="61" class="tf fk">Life expectancy at Birth<tspan x="170.41" class="ty">int</tspan></text></svg><svg width="168.39" height="125" x="327.5" y="-323.75" id="h658670535" class="t"><rect height="40" width="168.39" class="th"></rect><text x="13" y="25" class="tht">Gross National Income</text><rect height="85" width="168.39" class="t-bg"></rect><text x="13" y="61" class="tf">GDP per Capita<tspan x="155.39" class="ty">int</tspan></text><text x="13" y="86" class="tf">GDP Total<tspan x="155.39" class="ty">int</tspan></text><text x="13" y="111" class="tf fk">GNI per Capita<tspan x="155.39" class="ty">int</tspan></text></svg></g></g><text class="qdbd-link" x="10" y="20">www.quickdatabasediagrams.com</text></svg>